<mxfile host="app.diagrams.net" agent="Mozilla/5.0 (Windows NT 10.0; Win64; x64) AppleWebKit/537.36 (KHTML, like Gecko) Chrome/129.0.0.0 Safari/537.36" version="25.0.3">
  <diagram name="定时任务流程" id="ddt7QMK57tEVSbq9MGbc">
    <mxGraphModel dx="1034" dy="420" grid="1" gridSize="10" guides="1" tooltips="1" connect="1" arrows="1" fold="1" page="1" pageScale="1" pageWidth="827" pageHeight="1169" math="0" shadow="0">
      <root>
        <mxCell id="0" />
        <mxCell id="1" parent="0" />
        <mxCell id="VdV3hC7US1G3ZseEJHJ6-15" style="edgeStyle=orthogonalEdgeStyle;rounded=0;orthogonalLoop=1;jettySize=auto;html=1;" edge="1" parent="1" source="VdV3hC7US1G3ZseEJHJ6-1" target="VdV3hC7US1G3ZseEJHJ6-2">
          <mxGeometry relative="1" as="geometry" />
        </mxCell>
        <mxCell id="VdV3hC7US1G3ZseEJHJ6-16" value="发布批次releaseBatch" style="edgeLabel;html=1;align=center;verticalAlign=middle;resizable=0;points=[];" vertex="1" connectable="0" parent="VdV3hC7US1G3ZseEJHJ6-15">
          <mxGeometry x="-0.3481" y="-1" relative="1" as="geometry">
            <mxPoint as="offset" />
          </mxGeometry>
        </mxCell>
        <mxCell id="VdV3hC7US1G3ZseEJHJ6-1" value="Actor" style="shape=umlActor;verticalLabelPosition=bottom;verticalAlign=top;html=1;outlineConnect=0;" vertex="1" parent="1">
          <mxGeometry x="15" y="290" width="30" height="60" as="geometry" />
        </mxCell>
        <mxCell id="VdV3hC7US1G3ZseEJHJ6-5" value="" style="edgeStyle=orthogonalEdgeStyle;rounded=0;orthogonalLoop=1;jettySize=auto;html=1;entryX=0;entryY=0.5;entryDx=0;entryDy=0;" edge="1" parent="1" source="VdV3hC7US1G3ZseEJHJ6-7" target="VdV3hC7US1G3ZseEJHJ6-23">
          <mxGeometry relative="1" as="geometry">
            <mxPoint x="220" y="555" as="targetPoint" />
          </mxGeometry>
        </mxCell>
        <mxCell id="VdV3hC7US1G3ZseEJHJ6-6" value="取消批次" style="edgeLabel;html=1;align=center;verticalAlign=middle;resizable=0;points=[];" vertex="1" connectable="0" parent="VdV3hC7US1G3ZseEJHJ6-5">
          <mxGeometry x="-0.0056" y="-1" relative="1" as="geometry">
            <mxPoint as="offset" />
          </mxGeometry>
        </mxCell>
        <mxCell id="VdV3hC7US1G3ZseEJHJ6-7" value="Actor" style="shape=umlActor;verticalLabelPosition=bottom;verticalAlign=top;html=1;outlineConnect=0;" vertex="1" parent="1">
          <mxGeometry x="40" y="525" width="30" height="60" as="geometry" />
        </mxCell>
        <mxCell id="VdV3hC7US1G3ZseEJHJ6-10" value="Pool" style="swimlane;childLayout=stackLayout;resizeParent=1;resizeParentMax=0;startSize=20;html=1;" vertex="1" parent="1">
          <mxGeometry x="180.00000000000045" y="190" width="759.9999999999995" height="520" as="geometry" />
        </mxCell>
        <mxCell id="VdV3hC7US1G3ZseEJHJ6-11" value="OnlineSalesBatchSvc" style="swimlane;startSize=20;html=1;" vertex="1" parent="VdV3hC7US1G3ZseEJHJ6-10">
          <mxGeometry y="20" width="309.99999999999955" height="500" as="geometry" />
        </mxCell>
        <mxCell id="VdV3hC7US1G3ZseEJHJ6-30" value="" style="edgeStyle=orthogonalEdgeStyle;rounded=0;orthogonalLoop=1;jettySize=auto;html=1;" edge="1" parent="VdV3hC7US1G3ZseEJHJ6-11" source="VdV3hC7US1G3ZseEJHJ6-2" target="VdV3hC7US1G3ZseEJHJ6-29">
          <mxGeometry relative="1" as="geometry" />
        </mxCell>
        <mxCell id="VdV3hC7US1G3ZseEJHJ6-2" value="根据当前批次状态创建不同时间点" style="whiteSpace=wrap;html=1;verticalAlign=top;" vertex="1" parent="VdV3hC7US1G3ZseEJHJ6-11">
          <mxGeometry x="69.99999999999955" y="85" width="80" height="50" as="geometry" />
        </mxCell>
        <mxCell id="VdV3hC7US1G3ZseEJHJ6-28" value="" style="edgeStyle=orthogonalEdgeStyle;rounded=0;orthogonalLoop=1;jettySize=auto;html=1;" edge="1" parent="VdV3hC7US1G3ZseEJHJ6-11" source="VdV3hC7US1G3ZseEJHJ6-23" target="VdV3hC7US1G3ZseEJHJ6-27">
          <mxGeometry relative="1" as="geometry" />
        </mxCell>
        <mxCell id="VdV3hC7US1G3ZseEJHJ6-23" value="根据当前批次状态创建不同时间点" style="whiteSpace=wrap;html=1;verticalAlign=top;" vertex="1" parent="VdV3hC7US1G3ZseEJHJ6-11">
          <mxGeometry x="69.99999999999955" y="320" width="80" height="50" as="geometry" />
        </mxCell>
        <mxCell id="VdV3hC7US1G3ZseEJHJ6-27" value="根据时间点从Redis获取任务名" style="whiteSpace=wrap;html=1;verticalAlign=top;" vertex="1" parent="VdV3hC7US1G3ZseEJHJ6-11">
          <mxGeometry x="69.99999999999955" y="420" width="80" height="50" as="geometry" />
        </mxCell>
        <mxCell id="VdV3hC7US1G3ZseEJHJ6-29" value="根据时间点设置Redis任务名" style="whiteSpace=wrap;html=1;verticalAlign=top;" vertex="1" parent="VdV3hC7US1G3ZseEJHJ6-11">
          <mxGeometry x="69.99999999999955" y="180" width="80" height="50" as="geometry" />
        </mxCell>
        <mxCell id="VdV3hC7US1G3ZseEJHJ6-12" value="OnlineSalesDispatchSvc" style="swimlane;startSize=20;html=1;" vertex="1" parent="VdV3hC7US1G3ZseEJHJ6-10">
          <mxGeometry x="309.99999999999955" y="20" width="230" height="500" as="geometry" />
        </mxCell>
        <mxCell id="VdV3hC7US1G3ZseEJHJ6-17" value="根据当前时间算出延时多久执行（JVM）" style="whiteSpace=wrap;html=1;verticalAlign=top;" vertex="1" parent="VdV3hC7US1G3ZseEJHJ6-12">
          <mxGeometry x="80" y="85" width="80" height="50" as="geometry" />
        </mxCell>
        <mxCell id="VdV3hC7US1G3ZseEJHJ6-24" value="取消执行" style="whiteSpace=wrap;html=1;verticalAlign=top;" vertex="1" parent="VdV3hC7US1G3ZseEJHJ6-12">
          <mxGeometry x="75" y="420" width="80" height="50" as="geometry" />
        </mxCell>
        <mxCell id="VdV3hC7US1G3ZseEJHJ6-31" value="如果时间点一致，会影响任务的执行" style="ellipse;shape=cloud;whiteSpace=wrap;html=1;fillColor=#f8cecc;strokeColor=#b85450;" vertex="1" parent="VdV3hC7US1G3ZseEJHJ6-12">
          <mxGeometry x="35" y="270" width="145" height="100" as="geometry" />
        </mxCell>
        <mxCell id="VdV3hC7US1G3ZseEJHJ6-13" value="Lane 3" style="swimlane;startSize=20;html=1;" vertex="1" parent="VdV3hC7US1G3ZseEJHJ6-10">
          <mxGeometry x="539.9999999999995" y="20" width="220" height="500" as="geometry" />
        </mxCell>
        <mxCell id="VdV3hC7US1G3ZseEJHJ6-19" value="Redis" style="strokeWidth=2;html=1;shape=mxgraph.flowchart.database;whiteSpace=wrap;" vertex="1" parent="VdV3hC7US1G3ZseEJHJ6-13">
          <mxGeometry x="80" y="170" width="60" height="60" as="geometry" />
        </mxCell>
        <mxCell id="VdV3hC7US1G3ZseEJHJ6-18" value="" style="edgeStyle=orthogonalEdgeStyle;rounded=0;orthogonalLoop=1;jettySize=auto;html=1;" edge="1" parent="VdV3hC7US1G3ZseEJHJ6-10" source="VdV3hC7US1G3ZseEJHJ6-2" target="VdV3hC7US1G3ZseEJHJ6-17">
          <mxGeometry relative="1" as="geometry" />
        </mxCell>
        <mxCell id="VdV3hC7US1G3ZseEJHJ6-22" value="添加任务名：addOpenBetagtgptlbf" style="edgeLabel;html=1;align=center;verticalAlign=middle;resizable=0;points=[];" vertex="1" connectable="0" parent="VdV3hC7US1G3ZseEJHJ6-18">
          <mxGeometry x="-0.0806" y="1" relative="1" as="geometry">
            <mxPoint as="offset" />
          </mxGeometry>
        </mxCell>
        <mxCell id="VdV3hC7US1G3ZseEJHJ6-20" style="edgeStyle=orthogonalEdgeStyle;rounded=0;orthogonalLoop=1;jettySize=auto;html=1;entryX=0;entryY=0.5;entryDx=0;entryDy=0;entryPerimeter=0;" edge="1" parent="VdV3hC7US1G3ZseEJHJ6-10" source="VdV3hC7US1G3ZseEJHJ6-29" target="VdV3hC7US1G3ZseEJHJ6-19">
          <mxGeometry relative="1" as="geometry" />
        </mxCell>
        <mxCell id="VdV3hC7US1G3ZseEJHJ6-21" value="设置任务名称到Redis&lt;div&gt;addOpenBeta20240701162000：addOpenBetagtgptlbf&lt;br&gt;&lt;/div&gt;" style="edgeLabel;html=1;align=center;verticalAlign=middle;resizable=0;points=[];" vertex="1" connectable="0" parent="VdV3hC7US1G3ZseEJHJ6-20">
          <mxGeometry x="0.1363" y="-4" relative="1" as="geometry">
            <mxPoint as="offset" />
          </mxGeometry>
        </mxCell>
        <mxCell id="VdV3hC7US1G3ZseEJHJ6-25" style="edgeStyle=orthogonalEdgeStyle;rounded=0;orthogonalLoop=1;jettySize=auto;html=1;entryX=0;entryY=0.5;entryDx=0;entryDy=0;exitX=1;exitY=0.5;exitDx=0;exitDy=0;" edge="1" parent="VdV3hC7US1G3ZseEJHJ6-10" source="VdV3hC7US1G3ZseEJHJ6-27" target="VdV3hC7US1G3ZseEJHJ6-24">
          <mxGeometry relative="1" as="geometry" />
        </mxCell>
        <mxCell id="VdV3hC7US1G3ZseEJHJ6-26" value="取消任务名：addOpenBetagtgptlbf" style="edgeLabel;html=1;align=center;verticalAlign=middle;resizable=0;points=[];" vertex="1" connectable="0" parent="VdV3hC7US1G3ZseEJHJ6-25">
          <mxGeometry x="-0.2142" y="3" relative="1" as="geometry">
            <mxPoint x="18" y="3" as="offset" />
          </mxGeometry>
        </mxCell>
      </root>
    </mxGraphModel>
  </diagram>
</mxfile>
